<svg class="brand-logo__image" xmlns="http://www.w3.org/2000/svg"  viewBox="0 0 50 50"><path class="logo-shape" d="M 24.984375 2.9863281 A 1.0001 1.0001 0 0 0 24.839844 3 L 23.367188 3 C 23.249261 3 23.105779 3.0007797 22.947266 3.0117188 C 16.420163 3.2012534 10.892604 7.9034529 9.6445312 14.265625 L 8.0566406 14.912109 C 8.0046406 14.933109 7.9522969 14.961234 7.9042969 14.990234 C 6.9242969 15.599234 6.2552656 16.588828 6.0722656 17.673828 C 6.0132656 17.966828 5.9909062 18.256484 6.0039062 18.521484 L 6.1640625 23.601562 C 6.2080625 24.699562 6.8455781 25.684578 7.7675781 26.142578 L 8.5488281 26.601562 C 8.4131037 29.678646 8.3841341 32.46654 8.4882812 34.570312 A 1.0001 1.0001 0 0 0 8.4882812 34.572266 C 8.5037982 34.867093 8.5638422 35.142698 8.6484375 35.396484 C 8.8652357 36.046879 9.3093713 36.587337 9.8769531 36.951172 A 1.0001 1.0001 0 0 0 9.8925781 36.960938 C 10.695513 37.456529 11.850751 38.03628 13.117188 38.621094 C 13.256976 39.489207 13.659668 40.345715 14.226562 41.216797 C 14.928202 42.294925 15.889901 43.383438 17.013672 44.375 C 19.261213 46.358125 22.150781 48 25.050781 48 C 27.950781 48 30.838396 46.358125 33.085938 44.375 C 34.209708 43.383438 35.171408 42.294925 35.873047 41.216797 C 36.44078 40.344427 36.844717 39.486619 36.984375 38.617188 C 38.248479 38.033362 39.401516 37.455711 40.203125 36.960938 A 1.0001 1.0001 0 0 0 40.207031 36.957031 C 41.039978 36.43644 41.559518 35.538619 41.605469 34.570312 C 41.710266 32.453398 41.682388 29.645203 41.544922 26.544922 L 42.175781 26.173828 C 43.155781 25.683828 43.792891 24.696844 43.837891 23.589844 L 43.996094 18.535156 C 44.008094 18.256156 43.985594 17.966125 43.933594 17.703125 C 43.745594 16.588125 43.075703 15.600234 42.095703 14.990234 C 42.047703 14.961234 41.997312 14.933109 41.945312 14.912109 L 40.455078 14.306641 C 39.222632 7.9239165 33.687426 3.2016552 27.146484 3.0117188 C 26.987971 3.0007796 26.844489 3 26.726562 3 L 25.154297 3 A 1.0001 1.0001 0 0 0 24.984375 2.9863281 z M 23.367188 5 L 24 5 L 24 15 A 1.0001 1.0001 0 1 0 26 15 L 26 5 L 26.726562 5 C 26.764196 5 26.77936 5.0017329 26.8125 5.0019531 L 27.933594 17.789062 C 26.758046 17.929501 25.747437 18 25.046875 18 C 24.328605 18 23.280512 17.923227 22.066406 17.775391 L 23.1875 5.0039062 C 23.243946 5.0025522 23.2885 5 23.367188 5 z M 28.837891 5.2011719 C 33.726991 6.0666407 37.648543 9.8866141 38.527344 14.875 C 38.524444 14.897839 38.516927 14.920561 38.515625 14.943359 C 36.020423 16.206519 32.738882 17.028345 29.916016 17.5 L 28.837891 5.2011719 z M 21.162109 5.2167969 L 20.085938 17.484375 C 17.274873 17.008799 14.028042 16.187667 11.556641 14.931641 C 12.409734 9.9470429 16.297667 6.1176832 21.162109 5.2167969 z M 11.318359 16.943359 C 16.05399 19.175725 22.189353 20 25.046875 20 C 27.904185 20 34.039894 19.175339 38.775391 16.943359 C 38.943726 18.448176 39.09551 19.952644 39.212891 21.439453 C 32.867792 23.254222 28.568832 29.945722 28.167969 39.566406 C 27.543061 39.702213 26.920889 39.830565 26.365234 39.896484 L 27.287109 28.25 C 27.447109 26.27 28.757187 24.579922 30.617188 23.919922 L 36.076172 22.009766 C 36.996172 21.689766 37.706563 20.939766 37.976562 20.009766 L 38.546875 18 C 32.046875 21 27.046875 21 25.046875 21 C 24.056875 21 22.326875 21.000859 20.046875 20.630859 C 19.126875 20.490859 18.126875 20.280234 17.046875 19.990234 C 16.716875 19.910234 16.386875 19.820937 16.046875 19.710938 C 15.406875 19.520937 14.736875 19.299063 14.046875 19.039062 C 13.246875 18.739063 12.406875 18.4 11.546875 18 L 12.117188 20.009766 C 12.387187 20.939766 13.097578 21.689766 14.017578 22.009766 L 14.046875 22.019531 L 16.046875 22.720703 L 17.046875 23.070312 L 19.476562 23.919922 C 19.676562 23.989922 19.866875 24.070156 20.046875 24.160156 C 21.596875 24.940156 22.666641 26.48 22.806641 28.25 L 23.728516 39.896484 C 23.17286 39.830593 22.550689 39.702213 21.925781 39.566406 C 21.524893 29.945127 17.226596 23.253732 10.880859 21.439453 C 10.99824 19.952644 11.150024 18.448176 11.318359 16.943359 z M 10.728516 23.421875 C 15.812213 25.075557 19.504475 30.535253 19.980469 39.09375 C 16.449759 38.05471 12.689113 36.334296 10.957031 35.267578 C 10.744613 35.131413 10.608124 34.953277 10.544922 34.763672 C 10.509962 34.658804 10.491148 34.555289 10.486328 34.470703 L 10.486328 34.466797 C 10.352659 31.762792 10.440745 27.76002 10.728516 23.421875 z M 39.365234 23.421875 C 39.422227 24.281051 39.47705 25.13671 39.517578 25.960938 C 39.514398 26.036711 39.512952 26.109849 39.527344 26.185547 C 39.681565 29.430904 39.712285 32.352471 39.607422 34.470703 A 1.0001 1.0001 0 0 0 39.607422 34.474609 C 39.592182 34.804843 39.432439 35.082997 39.146484 35.261719 C 37.417407 36.328118 33.649114 38.053069 30.113281 39.09375 C 30.589275 30.535253 34.281538 25.075557 39.365234 23.421875 z M 34.429688 39.724609 C 34.354477 39.857722 34.28495 39.989218 34.195312 40.126953 C 33.615702 41.017575 32.764901 41.991562 31.763672 42.875 C 29.761213 44.641875 27.150781 46 25.050781 46 C 22.950781 46 20.338396 44.641875 18.335938 42.875 C 17.334708 41.991562 16.483908 41.017575 15.904297 40.126953 C 15.815572 39.99062 15.74834 39.860333 15.673828 39.728516 C 17.319137 40.373478 19.079365 40.964881 20.785156 41.386719 A 1.0001 1.0001 0 0 0 20.796875 41.390625 C 21.792811 41.637042 22.776062 41.824568 23.699219 41.912109 C 24.17751 41.977664 24.62876 42 25.046875 42 C 25.464396 42 25.916997 41.977449 26.394531 41.912109 C 27.317688 41.824569 28.300939 41.637042 29.296875 41.390625 C 31.00955 40.967795 32.777537 40.37249 34.429688 39.724609 z"/></svg>
