<?xml version="1.0" encoding="UTF-8"?>
<svg version="1.1" xmlns="http://www.w3.org/2000/svg" width="48" height="48">
<path d="M0 0 C15.84 0 31.68 0 48 0 C48 15.84 48 31.68 48 48 C32.16 48 16.32 48 0 48 C0 32.16 0 16.32 0 0 Z " fill="#AA177C" transform="translate(0,0)"/>
<path d="M0 0 C15.84 0 31.68 0 48 0 C48 15.84 48 31.68 48 48 C32.16 48 16.32 48 0 48 C0 32.16 0 16.32 0 0 Z M12 6 C10.700625 6.8353125 10.700625 6.8353125 9.375 7.6875 C4.66719183 12.27141848 2.76411644 16.93351885 2.5 23.5 C2.78986618 30.47611282 4.90901915 34.90901915 9.8125 39.8125 C15.47735231 43.70014375 20.07063748 45.64160764 27 45 C29.83378132 44.1025173 29.83378132 44.1025173 32 43 C30.68 42.67 29.36 42.34 28 42 C29 40 29 40 32.3125 38.3125 C36.55440234 36.01770037 37.84485698 33.23046592 40 29 C40.66 28.67 41.32 28.34 42 28 C41.01 30.97 40.02 33.94 39 37 C38.34 37 37.68 37 37 37 C37 37.66 37 38.32 37 39 C41.11095091 37.26407325 42.41832761 35.38820312 44.23046875 31.41015625 C45.89830892 26.1865147 46.12932972 20.83533845 44.08203125 15.6953125 C40.79269126 10.05340248 36.1124966 5.48217662 30 3 C23.50120086 2.30305357 17.54593135 2.21253469 12 6 Z " fill="#18152B" transform="translate(0,0)"/>
<path d="M0 0 C0.66 0 1.32 0 2 0 C2 0.66 2 1.32 2 2 C2.62648438 2.08636719 3.25296875 2.17273438 3.8984375 2.26171875 C6.36265733 2.68537799 8.64347754 3.15992344 11 4 C13.14085668 7.25410215 13 9.05137109 13 13 C13.66 13 14.32 13 15 13 C15 13.99 15 14.98 15 16 C14.34 16 13.68 16 13 16 C12.7834375 17.1446875 12.7834375 17.1446875 12.5625 18.3125 C12 21 12 21 11 24 C8.93359375 24.94921875 8.93359375 24.94921875 6.4375 25.6875 C5.61121094 25.93886719 4.78492187 26.19023438 3.93359375 26.44921875 C3.29550781 26.63097656 2.65742188 26.81273438 2 27 C2 29.31 2 31.62 2 34 C1.34 34 0.68 34 0 34 C0 31.69 0 29.38 0 27 C-3.3 26.34 -6.6 25.68 -10 25 C-10.48828125 22.75390625 -10.9765625 20.5078125 -11.46484375 18.26171875 C-11.99886159 15.854599 -11.99886159 15.854599 -13 13 C-12.04504326 11.30712215 -11.0409066 9.64142963 -10 8 C-9.67 6.68 -9.34 5.36 -9 4 C-6.03 3.34 -3.06 2.68 0 2 C0 1.34 0 0.68 0 0 Z " fill="#323054" transform="translate(23,9)"/>
<path d="M0 0 C9.9 0 19.8 0 30 0 C30 12.54 30 25.08 30 38 C28.68 37.34 27.36 36.68 26 36 C25.505 36.78375 25.01 37.5675 24.5 38.375 C21.35426835 41.67801823 18.5065016 42.63032604 14 43 C11.75 42.5390625 11.75 42.5390625 10 42 C11.25125384 38.24623848 12.5652404 37.75926711 16 36 C16.66 36 17.32 36 18 36 C18.28875 35.4225 18.5775 34.845 18.875 34.25 C19.91666667 32.16666667 20.95833333 30.08333333 22 28 C22.66 28 23.32 28 24 28 C23.5020163 31.73487777 23.12508244 33.81237635 21 37 C20.34 37 19.68 37 19 37 C19 37.66 19 38.32 19 39 C23.06258548 35.35768198 25.58288752 31.96059182 26.359375 26.44921875 C26.69819422 19.64459936 25.47395559 15.17071916 21 10 C16.14752959 5.5025884 12.33462382 3.80443199 5.75 3.375 C4.67234375 3.30023438 3.5946875 3.22546875 2.484375 3.1484375 C1.66453125 3.09945313 0.8446875 3.05046875 0 3 C0 2.01 0 1.02 0 0 Z " fill="#19152B" transform="translate(18,0)"/>
<path d="M0 0 C4.42703369 1.73919181 6.70939206 4.82123176 9.08984375 8.83984375 C11.19749963 13.84213432 10.88309681 19.66658649 8.984375 24.68359375 C5.76446047 30.74517984 5.76446047 30.74517984 2 32 C2 31.34 2 30.68 2 30 C2.66 30 3.32 30 4 30 C4.99 27.03 5.98 24.06 7 21 C4.61498582 21.94502035 4.61498582 21.94502035 3.3125 25.3125 C1.01770037 29.55440234 -1.76953408 30.84485698 -6 33 C-6.33 33.66 -6.66 34.32 -7 35 C-5.68 35.33 -4.36 35.66 -3 36 C-8.41917388 38.62747825 -12.8612159 38.71292803 -18.5625 36.8125 C-24.40007029 33.73450839 -28.59596536 30.36093836 -31.30078125 24.30078125 C-32.95064735 18.87189223 -33.07084515 13.56409982 -30.87109375 8.296875 C-29.66930073 6.11926714 -28.41385984 4.04504726 -27 2 C-26 5 -26 5 -26.77734375 7.04296875 C-27.16019531 7.75066406 -27.54304688 8.45835938 -27.9375 9.1875 C-28.31777344 9.90292969 -28.69804687 10.61835938 -29.08984375 11.35546875 C-29.54037109 12.16951172 -29.54037109 12.16951172 -30 13 C-29.01 13 -28.02 13 -27 13 C-26.814375 12.1028125 -26.814375 12.1028125 -26.625 11.1875 C-26 9 -26 9 -24 6 C-23.34 6.33 -22.68 6.66 -22 7 C-25.44615385 13.76923077 -25.44615385 13.76923077 -28.25 14.9375 C-28.8275 14.958125 -29.405 14.97875 -30 15 C-30 16.32 -30 17.64 -30 19 C-29.34 19.33 -28.68 19.66 -28 20 C-28.66 20 -29.32 20 -30 20 C-29.71125 20.55429687 -29.4225 21.10859375 -29.125 21.6796875 C-28.568125 22.76636719 -28.568125 22.76636719 -28 23.875 C-27.62875 24.59429688 -27.2575 25.31359375 -26.875 26.0546875 C-26 28 -26 28 -26 30 C-25.34 30 -24.68 30 -24 30 C-24 30.66 -24 31.32 -24 32 C-21.03 32.99 -18.06 33.98 -15 35 C-16.37691962 32.24616077 -18.36720042 31.48516899 -21 30 C-20.34 29.67 -19.68 29.34 -19 29 C-16.96855359 29.93446535 -14.96466413 30.93224776 -13 32 C-13 33.32 -13 34.64 -13 36 C-11.68 36 -10.36 36 -9 36 C-8.95875 35.236875 -8.9175 34.47375 -8.875 33.6875 C-8 31 -8 31 -5.0625 29.1875 C-2 28 -2 28 0 28 C0.433125 26.88625 0.433125 26.88625 0.875 25.75 C1.82302644 23.43260203 2.84845911 21.22082885 4 19 C5.32 19 6.64 19 8 19 C8 17.35 8 15.7 8 14 C7.236875 13.95875 6.47375 13.9175 5.6875 13.875 C3 13 3 13 1.125 10.25 C-0.06946087 6.79933525 0.0481436 5.42668304 1 2 C0.505 1.01 0.505 1.01 0 0 Z " fill="#A8177B" transform="translate(35,7)"/>
<path d="M0 0 C0.66 0 1.32 0 2 0 C2 0.66 2 1.32 2 2 C2.62648438 2.08636719 3.25296875 2.17273438 3.8984375 2.26171875 C6.36265733 2.68537799 8.64347754 3.15992344 11 4 C13.14085668 7.25410215 13 9.05137109 13 13 C13.66 13 14.32 13 15 13 C15 13.99 15 14.98 15 16 C14.34 16 13.68 16 13 16 C12.7834375 17.1446875 12.7834375 17.1446875 12.5625 18.3125 C12 21 12 21 11 24 C8.93359375 24.94921875 8.93359375 24.94921875 6.4375 25.6875 C5.61121094 25.93886719 4.78492187 26.19023438 3.93359375 26.44921875 C3.29550781 26.63097656 2.65742188 26.81273438 2 27 C2 29.31 2 31.62 2 34 C1.34 34 0.68 34 0 34 C0 31.69 0 29.38 0 27 C-3.3 26.34 -6.6 25.68 -10 25 C-10.48828125 22.75390625 -10.9765625 20.5078125 -11.46484375 18.26171875 C-11.99886159 15.854599 -11.99886159 15.854599 -13 13 C-12.04504326 11.30712215 -11.0409066 9.64142963 -10 8 C-9.67 6.68 -9.34 5.36 -9 4 C-6.03 3.34 -3.06 2.68 0 2 C0 1.34 0 0.68 0 0 Z M-7 7 C-9.6790573 11.01858595 -9.69610694 14.27641721 -9 19 C-7.20606332 21.87029869 -6.01736724 23.49131638 -3 25 C1.99691647 25.37712577 4.99067725 25.09290612 9 22 C11.68333228 17.97500157 11.79639219 14.72857864 11 10 C8.47631975 6.32919236 6.82964117 5.24135016 2.5625 4 C-1.53094236 4 -3.59065251 4.77995978 -7 7 Z " fill="#12BED5" transform="translate(23,9)"/>
<path d="M0 0 C0.6875 1.6875 0.6875 1.6875 1 4 C0.484375 4.763125 -0.03125 5.52625 -0.5625 6.3125 C-2.39731285 9.0332441 -2.39731285 9.0332441 -1.1875 12.5 C-0.795625 13.655 -0.40375 14.81 0 16 C0.125 18.9375 0.125 18.9375 0 21 C1.6396875 21.2165625 1.6396875 21.2165625 3.3125 21.4375 C7 22 7 22 10 23 C10 25.31 10 27.62 10 30 C9.79375 29.38125 9.5875 28.7625 9.375 28.125 C7.45224112 25.15346355 5.33405473 24.86975341 2 24 C2.825 24.45375 3.65 24.9075 4.5 25.375 C5.325 25.91125 6.15 26.4475 7 27 C7 27.66 7 28.32 7 29 C3.26512223 28.5020163 1.18762365 28.12508244 -2 26 C-2 25.34 -2 24.68 -2 24 C-2.66 24 -3.32 24 -4 24 C-7.04157942 18.77228537 -8.50610724 15.07328688 -8 9 C-7.401875 8.79375 -6.80375 8.5875 -6.1875 8.375 C-3.18806001 6.48963772 -2.42099863 4.18033026 -1 1 C-0.67 0.67 -0.34 0.34 0 0 Z " fill="#9F1775" transform="translate(13,13)"/>
<path d="M0 0 C0.99 0 1.98 0 3 0 C3 6.6 3 13.2 3 20 C1.68 19.34 0.36 18.68 -1 18 C-1.495 18.78375 -1.99 19.5675 -2.5 20.375 C-5.64573165 23.67801823 -8.4934984 24.63032604 -13 25 C-15.25 24.5390625 -15.25 24.5390625 -17 24 C-15.74874616 20.24623848 -14.4347596 19.75926711 -11 18 C-10.34 18 -9.68 18 -9 18 C-8.71125 17.4225 -8.4225 16.845 -8.125 16.25 C-7.08333333 14.16666667 -6.04166667 12.08333333 -5 10 C-4.34 10 -3.68 10 -3 10 C-3.4979837 13.73487777 -3.87491756 15.81237635 -6 19 C-6.66 19 -7.32 19 -8 19 C-8 19.66 -8 20.32 -8 21 C-1.86294692 15.49781448 -0.65434837 10.1521819 -0.11328125 2.1953125 C-0.07589844 1.47085937 -0.03851563 0.74640625 0 0 Z " fill="#1D152E" transform="translate(45,18)"/>
<path d="M0 0 C4.42703369 1.73919181 6.70939206 4.82123176 9.08984375 8.83984375 C11.19749963 13.84213432 10.88309681 19.66658649 8.984375 24.68359375 C5.76446047 30.74517984 5.76446047 30.74517984 2 32 C2 31.34 2 30.68 2 30 C2.66 30 3.32 30 4 30 C4.433125 28.9171875 4.433125 28.9171875 4.875 27.8125 C5.91666667 25.20833333 6.95833333 22.60416667 8 20 C7.34 19.67 6.68 19.34 6 19 C6.66 19 7.32 19 8 19 C8 17.35 8 15.7 8 14 C7.236875 13.95875 6.47375 13.9175 5.6875 13.875 C3 13 3 13 1.125 10.25 C-0.06946087 6.79933525 0.0481436 5.42668304 1 2 C0.67 1.34 0.34 0.68 0 0 Z " fill="#B21780" transform="translate(35,7)"/>
<path d="M0 0 C2.52588702 2.36292656 3.88820837 3.66462511 5 7 C7.01508358 7.73323796 7.01508358 7.73323796 9 8 C9 9.65 9 11.3 9 13 C8.37609375 13.08636719 7.7521875 13.17273437 7.109375 13.26171875 C4.8760876 13.7858254 4.8760876 13.7858254 4.015625 15.70703125 C3.76296875 16.40183594 3.5103125 17.09664062 3.25 17.8125 C1.67826525 21.33947278 0.3990078 22.6661048 -3.125 24.25 C-3.80820312 24.50265625 -4.49140625 24.7553125 -5.1953125 25.015625 C-7.50475424 26.27532049 -8.03900654 27.60246993 -9 30 C-9 27.69 -9 25.38 -9 23 C-3.375 20 -3.375 20 0 20 C0.2165625 18.8553125 0.2165625 18.8553125 0.4375 17.6875 C1 15 1 15 2 12 C2.66 12 3.32 12 4 12 C4 11.01 4 10.02 4 9 C3.34 9 2.68 9 2 9 C0.50178941 5.62902617 0 3.79557881 0 0 Z " fill="#24314E" transform="translate(34,13)"/>
<path d="M0 0 C2.4375 0.8125 2.4375 0.8125 4.4375 2.8125 C4.75 5.8125 4.75 5.8125 4.4375 8.8125 C1.4375 10.8125 1.4375 10.8125 -1.6875 10.5 C-4.5625 9.8125 -4.5625 9.8125 -5.5625 8.8125 C-6.01941383 3.55799098 -6.01941383 3.55799098 -4.375 0.875 C-2.5625 -0.1875 -2.5625 -0.1875 0 0 Z " fill="#35244A" transform="translate(24.5625,18.1875)"/>
<path d="M0 0 C0.66 0 1.32 0 2 0 C1.5020163 3.73487777 1.12508244 5.81237635 -1 9 C-1.66 9 -2.32 9 -3 9 C-2.67 9.99 -2.34 10.98 -2 12 C-3.625 13.5625 -3.625 13.5625 -6 15 C-9.25 14.6875 -9.25 14.6875 -12 14 C-10.74874616 10.24623848 -9.4347596 9.75926711 -6 8 C-5.34 8 -4.68 8 -4 8 C-3.566875 7.13375 -3.566875 7.13375 -3.125 6.25 C-1.5625 3.125 -1.5625 3.125 0 0 Z " fill="#9B1773" transform="translate(40,28)"/>
<path d="M0 0 C2.4375 1.5625 2.4375 1.5625 4 4 C3.78571429 10.21428571 3.78571429 10.21428571 1 13 C-6.10659898 13.67681895 -6.10659898 13.67681895 -9.0625 11.4375 C-10.40411569 7.9492992 -9.92678615 5.57474656 -9 2 C-5.50875983 -0.32749345 -4.10777749 -0.50299316 0 0 Z M-6.75 2.125 C-8.56681719 4.85022579 -8.407974 6.80420369 -8 10 C-5.162422 12.35014158 -5.162422 12.35014158 -1.875 11.6875 C0.88086422 11.29355679 0.88086422 11.29355679 2 10 C2.40153823 5.83041276 2.40153823 5.83041276 0.75 2.125 C-1.89802025 0.42270126 -4.10197975 0.42270126 -6.75 2.125 Z " fill="#28ACC4" transform="translate(27,17)"/>
<path d="M0 0 C0.6875 1.6875 0.6875 1.6875 1 4 C0.484375 4.763125 -0.03125 5.52625 -0.5625 6.3125 C-2.40952929 9.04581624 -2.40952929 9.04581624 -1.125 12.5625 C-0.75375 13.696875 -0.3825 14.83125 0 16 C-0.375 18.4375 -0.375 18.4375 -1 20 C-4 15.25 -4 15.25 -4 13 C-5.32 13 -6.64 13 -8 13 C-8 11.68 -8 10.36 -8 9 C-7.401875 8.79375 -6.80375 8.5875 -6.1875 8.375 C-3.18806001 6.48963772 -2.42099863 4.18033026 -1 1 C-0.67 0.67 -0.34 0.34 0 0 Z " fill="#262543" transform="translate(13,13)"/>
<path d="M0 0 C1.32 0 2.64 0 4 0 C4.20625 0.598125 4.4125 1.19625 4.625 1.8125 C6.50926082 4.81018767 8.81132084 5.61361776 12 7 C11.67 7.66 11.34 8.32 11 9 C5.25 7.125 5.25 7.125 3 6 C3 5.34 3 4.68 3 4 C2.34 4 1.68 4 1 4 C1 4.66 1 5.32 1 6 C-3.43076923 8.09230769 -3.43076923 8.09230769 -6.3125 7.625 C-6.869375 7.41875 -7.42625 7.2125 -8 7 C-3.375 4 -3.375 4 0 4 C0 2.68 0 1.36 0 0 Z " fill="#24223F" transform="translate(22,5)"/>
<path d="M0 0 C3 2 3 2 3.75 5.5 C4.1625 6.655 4.575 7.81 5 9 C8.51400668 10.54086322 8.51400668 10.54086322 12 11 C10.68 11.33 9.36 11.66 8 12 C8 12.66 8 13.32 8 14 C9.65 14 11.3 14 13 14 C13 14.33 13 14.66 13 15 C8.86001651 15.32470459 6.66000999 15.4304413 3.125 13.125 C0.88054301 10.88054301 0.04438978 9.98367762 -0.09765625 6.8359375 C-0.08605469 6.02382813 -0.07445312 5.21171875 -0.0625 4.375 C-0.05347656 3.55773437 -0.04445313 2.74046875 -0.03515625 1.8984375 C-0.02355469 1.27195312 -0.01195312 0.64546875 0 0 Z " fill="#353055" transform="translate(14,19)"/>
<path d="M0 0 C1 3 1 3 0.22265625 5.04296875 C-0.16019531 5.75066406 -0.54304687 6.45835938 -0.9375 7.1875 C-1.31777344 7.90292969 -1.69804688 8.61835938 -2.08984375 9.35546875 C-2.54037109 10.16951172 -2.54037109 10.16951172 -3 11 C-2.01 11 -1.02 11 0 11 C0.185625 10.1028125 0.185625 10.1028125 0.375 9.1875 C1 7 1 7 3 4 C3.66 4.33 4.32 4.66 5 5 C1.52863436 11.81875393 1.52863436 11.81875393 -1.1875 12.75 C-2.0846875 12.87375 -2.0846875 12.87375 -3 13 C-3.33 13.99 -3.66 14.98 -4 16 C-5.38065353 11.00840645 -5.13272883 8.62537814 -2.5625 4.0625 C-1.72606467 2.69730991 -0.87756515 1.3391219 0 0 Z " fill="#A61779" transform="translate(8,9)"/>
<path d="M0 0 C0.66 0.33 1.32 0.66 2 1 C2.31785906 4.49644963 2.39644605 6.397402 0.4375 9.375 C-2.81682503 11.54455002 -5.17130414 11.29451507 -9 11 C-9 10.34 -9 9.68 -9 9 C-7.88625 8.62875 -6.7725 8.2575 -5.625 7.875 C-2.38621238 6.5205979 -2.10727559 6.23787197 -0.5625 2.8125 C-0.376875 1.884375 -0.19125 0.95625 0 0 Z " fill="#372A50" transform="translate(31,22)"/>
<path d="M0 0 C3.96 0 7.92 0 12 0 C12 1.32 12 2.64 12 4 C8.04 4 4.08 4 0 4 C0 2.68 0 1.36 0 0 Z " fill="#251532" transform="translate(18,44)"/>
<path d="M0 0 C2.45406016 2.45406016 2.38381215 3.5471488 2.6875 6.9375 C2.77386719 7.81277344 2.86023438 8.68804687 2.94921875 9.58984375 C3 12 3 12 2 15 C2.99 15.33 3.98 15.66 5 16 C3.68 16 2.36 16 1 16 C0.86722656 15.38511719 0.73445312 14.77023438 0.59765625 14.13671875 C0.42105469 13.32847656 0.24445312 12.52023438 0.0625 11.6875 C-0.11152344 10.88699219 -0.28554687 10.08648437 -0.46484375 9.26171875 C-0.99886159 6.854599 -0.99886159 6.854599 -2 4 C-1.0625 1.8125 -1.0625 1.8125 0 0 Z " fill="#14ABC2" transform="translate(12,18)"/>
<path d="M0 0 C3.46941546 0.45822468 6.67395049 0.89131683 10 2 C10 4.31 10 6.62 10 9 C9.75507813 8.38640625 9.51015625 7.7728125 9.2578125 7.140625 C7.74947715 4.57364433 6.55743212 3.96142096 3.875 2.75 C3.15054687 2.41484375 2.42609375 2.0796875 1.6796875 1.734375 C1.12539062 1.49203125 0.57109375 1.2496875 0 1 C0 0.67 0 0.34 0 0 Z " fill="#2A2646" transform="translate(13,34)"/>
<path d="M0 0 C0.99 0.33 1.98 0.66 3 1 C1.68 3.64 0.36 6.28 -1 9 C-1.99 9 -2.98 9 -4 9 C-3.46930939 5.17902761 -2.50298434 2.93828597 0 0 Z " fill="#3F1641" transform="translate(9,11)"/>
<path d="M0 0 C0.556875 0.8971875 0.556875 0.8971875 1.125 1.8125 C3.42561008 4.49654509 5.79751065 5.5766714 9 7 C8.67 7.66 8.34 8.32 8 9 C2.25 7.125 2.25 7.125 0 6 C0 5.34 0 4.68 0 4 C-0.66 3.67 -1.32 3.34 -2 3 C-1.34 3 -0.68 3 0 3 C0 2.01 0 1.02 0 0 Z " fill="#242B49" transform="translate(25,5)"/>
<path d="M0 0 C2.64 1.65 5.28 3.3 8 5 C5.07175348 5.97608217 3.04386724 6.08226668 0 6 C0 6.66 0 7.32 0 8 C-0.99 7.67 -1.98 7.34 -3 7 C-3 6.34 -3 5.68 -3 5 C-2.01 4.67 -1.02 4.34 0 4 C0 2.68 0 1.36 0 0 Z " fill="#36163C" transform="translate(7,37)"/>
<path d="M0 0 C3 1 3 1 4.6875 3.9375 C6 7 6 7 6 9 C5.01 9 4.02 9 3 9 C1.68 6.36 0.36 3.72 -1 1 C-0.67 0.67 -0.34 0.34 0 0 Z " fill="#3D163F" transform="translate(37,11)"/>
<path d="M0 0 C3.625 0.375 3.625 0.375 7 1 C5.68 1.33 4.36 1.66 3 2 C3 2.66 3 3.32 3 4 C4.65 4 6.3 4 8 4 C8 4.33 8 4.66 8 5 C1.47692308 5.36923077 1.47692308 5.36923077 -0.9375 3.5 C-1.4634375 2.7575 -1.4634375 2.7575 -2 2 C-1.34 1.34 -0.68 0.68 0 0 Z " fill="#2D4565" transform="translate(19,29)"/>
<path d="M0 0 C2.475 0.99 2.475 0.99 5 2 C5 2.99 5 3.98 5 5 C4.01 4.34 3.02 3.68 2 3 C0.68 4.65 -0.64 6.3 -2 8 C-2.99 7.67 -3.98 7.34 -5 7 C-4.360625 6.21625 -3.72125 5.4325 -3.0625 4.625 C-1.01857687 2.20460719 -1.01857687 2.20460719 0 0 Z " fill="#34163B" transform="translate(42,33)"/>
<path d="M0 0 C0 0.99 0 1.98 0 3 C-2.8125 4.5625 -2.8125 4.5625 -6 6 C-6.99 5.67 -7.98 5.34 -9 5 C-4.32258065 0 -4.32258065 0 0 0 Z " fill="#38163D" transform="translate(20,5)"/>
<path d="M0 0 C3.77545388 1.09068668 6.47043472 1.9083091 9 5 C6 6 6 6 2.8125 4.5625 C1.884375 4.046875 0.95625 3.53125 0 3 C0 2.01 0 1.02 0 0 Z " fill="#39163D" transform="translate(28,5)"/>
<path d="M0 0 C2.92879371 0.62759865 5.36095629 1.58622659 8 3 C8 3.66 8 4.32 8 5 C5.125 4.75 5.125 4.75 2 4 C0.625 1.9375 0.625 1.9375 0 0 Z " fill="#35163B" transform="translate(12,37)"/>
<path d="M0 0 C-0.55429687 0.24234375 -1.10859375 0.4846875 -1.6796875 0.734375 C-2.40414062 1.06953125 -3.12859375 1.4046875 -3.875 1.75 C-4.95394531 2.23726562 -4.95394531 2.23726562 -6.0546875 2.734375 C-8.3370674 4.21929686 -9.00375898 5.50415408 -10 8 C-10 5.69 -10 3.38 -10 1 C-3.375 -1.125 -3.375 -1.125 0 0 Z " fill="#2B1F40" transform="translate(35,35)"/>
<path d="M0 0 C0.66 0 1.32 0 2 0 C1.75 2.875 1.75 2.875 1 6 C-1.0625 7.375 -1.0625 7.375 -3 8 C-2.37240135 5.07120629 -1.41377341 2.63904371 0 0 Z " fill="#33163A" transform="translate(40,28)"/>
<path d="M0 0 C0.99 0 1.98 0 3 0 C5.10770759 2.88834003 6 4.38462395 6 8 C4.125 7.375 4.125 7.375 2 6 C0.75 2.875 0.75 2.875 0 0 Z " fill="#311639" transform="translate(5,28)"/>
<path d="M0 0 C-1 2 -1 2 -2.625 2.625 C-5.7660575 3.12095645 -8.82601831 3.06103811 -12 3 C-12.33 2.34 -12.66 1.68 -13 1 C-8.61414671 0.29826347 -4.44209357 -0.10834375 0 0 Z " fill="#AF187F" transform="translate(32,42)"/>
<path d="M0 0 C-1 3 -1 3 -2.875 4.1875 C-5 5 -5 5 -8 5 C-7 2 -7 2 -5.125 0.8125 C-3 0 -3 0 0 0 Z " fill="#2E1638" transform="translate(36,37)"/>
<path d="M0 0 C3 2 3 2 3.51171875 3.9453125 C3.67447917 5.96354167 3.83723958 7.98177083 4 10 C1.2027092 7.93243723 0.97307727 6.85559629 0.3125 3.3125 C0.209375 2.219375 0.10625 1.12625 0 0 Z " fill="#1E3953" transform="translate(9,23)"/>
<path d="M0 0 C0 2.31 0 4.62 0 7 C-0.99 7 -1.98 7 -3 7 C-3.6875 5.1875 -3.6875 5.1875 -4 3 C-1.64285714 0 -1.64285714 0 0 0 Z " fill="#121528" transform="translate(48,11)"/>
<path d="M0 0 C0.66 0 1.32 0 2 0 C1.40072174 3.35595828 0.15377564 5.37801226 -2 8 C-2.99 6.68 -3.98 5.36 -5 4 C-4.0409375 3.8453125 -4.0409375 3.8453125 -3.0625 3.6875 C-2.381875 3.460625 -1.70125 3.23375 -1 3 C-0.67 2.01 -0.34 1.02 0 0 Z " fill="#3F1742" transform="translate(41,2)"/>
<path d="M0 0 C1.9375 0.5625 1.9375 0.5625 4 2 C4.75 5.625 4.75 5.625 5 9 C1.58712264 7.29356132 1.15558675 3.46676025 0 0 Z " fill="#2C9DB6" transform="translate(26,17)"/>
<path d="M0 0 C0.66 0.33 1.32 0.66 2 1 C2 2.98 2 4.96 2 7 C1.01 7 0.02 7 -1 7 C-0.67 4.69 -0.34 2.38 0 0 Z " fill="#322448" transform="translate(31,22)"/>
<path d="M0 0 C0 3 0 3 -2 6 C-2.33 6.99 -2.66 7.98 -3 9 C-3.66 7.02 -4.32 5.04 -5 3 C-3.35 2.01 -1.7 1.02 0 0 Z " fill="#34173B" transform="translate(47,9)"/>
</svg>
