<?xml version="1.0" standalone="no"?>
<!DOCTYPE svg PUBLIC "-//W3C//DTD SVG 20010904//EN"
 "http://www.w3.org/TR/2001/REC-SVG-20010904/DTD/svg10.dtd">
<svg version="1.0" xmlns="http://www.w3.org/2000/svg"
 width="34.000000pt" height="34.000000pt" viewBox="0 0 34.000000 34.000000">

<g transform="translate(0.000000,34.000000) scale(0.100000,-0.100000)"
fill="white" stroke="none">
<path fill="#4A65BD" d="M0 170 l0 -170 170 0 170 0 0 170 0 170 -170 0 -170 0 0 -170z m182
6 c30 -13 38 -13 61 -1 26 13 27 13 27 -9 0 -17 -9 -27 -30 -36 -26 -11 -37
-10 -70 5 -33 15 -45 16 -66 7 -33 -15 -34 -15 -34 6 0 42 49 54 112 28z"/>
</g>
</svg>
